<svg width="422" height="70" viewBox="0 0 422 70" fill="none" xmlns="http://www.w3.org/2000/svg">
<g clip-path="url(#clip0_22_239)">
<path d="M0 31.7801V27.9701L35.6 5.87012L39.94 12.7301L12.2 29.5001L39.94 45.8901L35.6 52.7501L0 31.7801Z" fill="#00AA60"/>
<path d="M68.2202 0.909912H84.1502V33.8399C84.1502 37.6499 84.3502 41.4099 84.7602 45.1199C84.7602 45.3699 84.7802 45.6299 84.8402 45.8799H89.7202V54.2599H77.4502L76.4602 49.3799H76.1502C75.6402 50.2899 74.9602 51.1099 74.0902 51.8199C73.2302 52.5299 72.2602 53.1499 71.1902 53.6899C70.1202 54.2199 68.9502 54.6299 67.6802 54.9099C66.4102 55.1899 65.1402 55.3299 63.8702 55.3299C61.4802 55.3299 59.2302 54.9499 57.1202 54.1899C55.0102 53.4299 53.1702 52.2499 51.5902 50.6499C50.0102 49.0499 48.7702 47.0199 47.8602 44.5499C46.9502 42.0799 46.4902 39.1799 46.4902 35.8199C46.4902 32.4599 46.9902 29.6699 47.9802 27.1299C48.9702 24.5899 50.3402 22.4399 52.1002 20.6899C53.8502 18.9399 55.9202 17.5899 58.3102 16.6499C60.7002 15.7099 63.3102 15.2399 66.1602 15.2399C67.7302 15.2399 69.2202 15.3299 70.6202 15.5099C72.0202 15.6899 73.2202 15.9799 74.2402 16.3899V9.29991H68.2202V0.909912ZM66.1602 46.9499C68.0902 46.9499 69.8102 46.4799 71.3102 45.5399C72.8102 44.5999 73.7902 43.2399 74.2402 41.4599V25.3099C73.5302 24.7499 72.5502 24.3299 71.3102 24.0499C70.0602 23.7699 68.7602 23.6299 67.3802 23.6299C66.0002 23.6299 64.6702 23.8599 63.3802 24.3199C62.0802 24.7799 60.9402 25.4999 59.9502 26.4899C58.9602 27.4799 58.1702 28.7599 57.5902 30.3399C57.0102 31.9199 56.7102 33.8499 56.7102 36.1299C56.7102 39.3799 57.5202 41.9999 59.1502 43.9799C60.7802 45.9599 63.1102 46.9499 66.1602 46.9499Z" fill="#FDFDFD"/>
<path d="M97.0303 45.8801H110.45V24.5401H97.0303V16.1601H120.35V45.8901H134.45V54.2701H97.0303V45.8901V45.8801ZM108.61 5.79007C108.61 4.22007 109.19 2.87007 110.36 1.75007C111.53 0.630068 113.15 0.0700684 115.24 0.0700684C117.33 0.0700684 119.08 0.630068 120.35 1.75007C121.62 2.87007 122.26 4.22007 122.26 5.79007C122.26 7.36007 121.62 8.75007 120.35 9.79007C119.08 10.8301 117.38 11.3501 115.24 11.3501C113.1 11.3501 111.53 10.8301 110.36 9.79007C109.19 8.75007 108.61 7.42007 108.61 5.79007Z" fill="#FDFDFD"/>
<path d="M145.05 45.8799L168.53 24.5399H145.05V16.1599H181.03V24.5399L157.78 45.8799H181.03V54.2599H145.05V45.8799Z" fill="#FDFDFD"/>
<path d="M192.68 45.8799L216.16 24.5399H192.68V16.1599H228.66V24.5399L205.41 45.8799H228.66V54.2599H192.68V45.8799Z" fill="#FDFDFD"/>
<path d="M235.44 16.1601H248.4L249.54 20.7301H249.84C252.48 16.9701 256.75 15.0901 262.64 15.0901C264.98 15.0901 267.12 15.4601 269.08 16.2001C271.04 16.9401 272.71 18.0901 274.11 19.6701C275.51 21.2501 276.59 23.2301 277.35 25.6201C278.11 28.0101 278.49 30.8801 278.49 34.2301C278.49 37.5801 278.06 40.4201 277.2 43.0301C276.33 45.6501 275.09 47.8701 273.47 49.7001C271.84 51.5301 269.86 52.9301 267.52 53.8901C265.18 54.8501 262.51 55.3401 259.52 55.3401C257.94 55.3401 256.4 55.2301 254.87 55.0001C253.34 54.7701 252.08 54.4001 251.06 53.9001V69.5201H241.15V24.5401H235.43V16.1601H235.44ZM259.68 23.4801C257.75 23.4801 255.98 23.9601 254.38 24.9301C252.78 25.9001 251.67 27.3401 251.06 29.2701V45.1201C251.77 45.6801 252.8 46.1201 254.15 46.4501C255.5 46.7801 256.86 46.9501 258.23 46.9501C259.6 46.9501 260.97 46.7101 262.19 46.2301C263.41 45.7501 264.48 44.9701 265.39 43.9001C266.3 42.8301 267.01 41.4901 267.52 39.8601C268.03 38.2401 268.28 36.2801 268.28 33.9901C268.28 30.6401 267.47 28.0401 265.84 26.2201C264.21 24.3901 262.16 23.4801 259.67 23.4801H259.68Z" fill="#FDFDFD"/>
<path d="M306.02 43.5199H308.92L316.31 16.1599H326.52L315.7 50.5399C314.74 53.3899 313.79 55.9899 312.88 58.3499C311.97 60.7099 310.9 62.7599 309.68 64.4899C308.46 66.2199 307.02 67.5499 305.37 68.4899C303.72 69.4299 301.7 69.8999 299.31 69.8999C298.14 69.8999 297.03 69.7499 295.99 69.4399C294.95 69.1399 294 68.7699 293.13 68.3299C292.26 67.8999 291.5 67.4399 290.84 66.9599C290.18 66.4799 289.64 66.0299 289.24 65.6299L294.35 58.8499C295.01 59.4099 295.8 59.9299 296.71 60.4099C297.62 60.8899 298.49 61.1299 299.3 61.1299C300.82 61.1299 302.03 60.5999 302.92 59.5299C303.81 58.4599 304.66 56.7099 305.47 54.2699H300.06L284.21 16.1599H294.96L306.01 43.5199H306.02Z" fill="#FDFDFD"/>
<path d="M363.42 0L370.89 3.35L343.68 64.94L336.21 61.43L363.42 0Z" fill="#00AA60"/>
<path d="M385.45 52.7501L381.1 45.8901L408.84 29.5001L381.1 12.7301L385.45 5.87012L421.04 27.9701V31.7801L385.45 52.7401V52.7501Z" fill="#00AA60"/>
</g>
<defs>
<clipPath id="clip0_22_239">
<rect width="421.04" height="69.89" fill="white"/>
</clipPath>
</defs>
</svg>
